<?xml version="1.0" standalone="no"?>
<!DOCTYPE svg PUBLIC "-//W3C//DTD SVG 20010904//EN"
 "http://www.w3.org/TR/2001/REC-SVG-20010904/DTD/svg10.dtd">
<svg version="1.0" xmlns="http://www.w3.org/2000/svg"
 width="16.000000pt" height="16.000000pt" viewBox="0 0 16.000000 16.000000"
 preserveAspectRatio="xMidYMid meet">
<metadata>
Created by potrace 1.11, written by Peter Selinger 2001-2013
</metadata>
<g transform="translate(0.000000,16.000000) scale(0.013115,-0.013115)"
fill="#000000" stroke="none">
<path d="M829 1063 c-14 -3 -76 -101 -67 -104 10 -5 56 -4 56 1 -1 3 5 19 12
35 7 17 14 33 14 37 1 3 4 10 9 14 4 4 7 11 7 16 0 8 -4 9 -31 1z"/>
<path d="M412 1051 c-13 -8 -14 -40 -2 -51 3 -3 16 -22 30 -42 26 -39 57 -61
47 -34 -4 10 -1 13 9 9 7 -3 14 -2 14 1 0 12 -42 91 -58 109 -17 19 -21 20
-40 8z"/>
<path d="M1003 939 c-35 -13 -63 -34 -87 -64 -20 -24 -36 -45 -36 -47 0 -2 9
-4 20 -4 11 0 20 4 20 9 0 4 5 5 10 2 6 -4 18 -1 27 7 14 11 16 11 9 -2 -4 -8
-1 -7 8 4 8 10 26 19 39 20 14 0 23 4 21 8 -2 4 4 9 15 13 22 7 38 38 22 43
-5 2 -7 10 -4 18 7 18 -1 17 -64 -7z"/>
<path d="M173 930 c-15 -6 -21 -15 -17 -25 7 -16 122 -95 141 -95 6 0 13 -5
15 -12 3 -8 12 -5 27 8 l22 21 -40 36 c-71 64 -110 82 -148 67z"/>
<path d="M611 914 c-39 -16 -36 -25 8 -26 17 -1 28 -5 24 -11 -3 -5 4 -4 15 2
14 7 23 8 27 1 4 -6 11 -8 16 -5 5 4 9 1 9 -5 0 -6 5 -8 10 -5 6 3 10 1 10 -4
0 -6 7 -11 14 -11 15 0 58 -51 69 -82 4 -10 13 -18 20 -18 17 0 29 -51 22 -86
-3 -13 -7 -35 -10 -49 -3 -14 -11 -25 -18 -25 -7 0 -20 -15 -30 -32 -10 -18
-36 -46 -57 -61 -22 -16 -40 -37 -40 -47 0 -17 25 -35 43 -31 5 1 6 -3 2 -8
-6 -11 -69 -31 -97 -31 -10 0 -18 5 -18 10 0 6 12 10 28 10 21 0 24 2 12 10
-10 6 -11 10 -2 10 6 0 12 5 12 10 0 6 -11 10 -24 10 -37 0 -141 35 -174 59
-37 26 -72 99 -72 148 0 41 43 143 60 143 5 0 10 8 10 17 0 9 3 13 6 10 4 -3
16 5 26 19 24 29 19 39 -15 30 -32 -8 -126 -102 -143 -143 -18 -41 -17 -107 0
-156 l14 -38 -44 -22 c-24 -11 -44 -25 -44 -29 0 -12 11 -9 55 12 40 19 64 26
52 14 -3 -3 7 -17 24 -31 26 -23 42 -52 20 -38 -5 3 -12 1 -15 -4 -10 -16 55
-69 91 -76 18 -3 31 -10 28 -15 -3 -5 0 -12 6 -16 7 -4 9 -3 5 4 -6 10 20 9
99 -1 11 -2 26 1 33 6 6 5 12 6 12 2 0 -4 8 -1 17 6 11 9 14 10 9 2 -5 -9 -2
-11 8 -7 9 3 14 9 12 13 -3 4 5 8 16 8 12 1 24 6 27 12 3 5 12 11 20 13 17 4
71 57 71 69 0 5 6 12 13 15 8 3 14 10 15 17 0 7 5 30 11 52 9 36 4 67 -6 37
-10 -28 -20 1 -12 35 22 98 -2 184 -70 253 -65 65 -141 84 -210 54z m-16 -532
c-3 -3 -11 0 -18 7 -9 10 -8 11 6 5 10 -3 15 -9 12 -12z"/>
<path d="M572 844 c-18 -7 -37 -13 -42 -11 -12 3 -91 -104 -84 -114 3 -5 1 -9
-4 -9 -5 0 -9 -25 -9 -55 0 -62 13 -73 23 -20 3 19 10 35 16 35 5 0 7 4 4 8
-3 5 4 19 15 30 11 12 16 22 12 22 -4 0 2 6 12 14 11 8 24 12 30 9 5 -4 7 -3
3 2 -10 10 39 48 52 40 5 -3 10 -2 10 4 0 5 9 8 20 6 11 -2 20 1 20 6 0 6 8 5
21 -2 16 -8 20 -8 14 1 -6 9 -2 9 14 1 11 -7 21 -8 21 -4 0 4 4 2 9 -6 5 -8
16 -11 25 -8 21 8 6 43 -23 52 -43 13 -127 13 -159 -1z"/>
<path d="M602 743 c-1 -16 -3 -47 -5 -71 -3 -29 1 -48 11 -58 22 -23 37 -11
37 29 0 21 2 37 5 37 8 0 5 44 -4 58 -4 7 -4 17 -1 22 3 6 -5 10 -18 10 -20 0
-25 -5 -25 -27z"/>
<path d="M921 741 c-16 -10 -5 -18 37 -26 19 -3 32 -1 32 5 0 5 8 10 18 11 14
0 14 2 -3 9 -26 11 -67 12 -84 1z"/>
<path d="M915 641 c-7 -12 26 -27 76 -36 36 -7 39 12 4 25 -48 18 -73 22 -80
11z"/>
<path d="M324 382 c-41 -34 -61 -72 -40 -72 8 0 22 -3 32 -7 12 -4 15 -3 10 5
-5 8 -2 10 8 6 9 -3 16 -1 16 4 0 6 11 23 25 38 14 15 25 33 25 40 0 23 -43
15 -76 -14z"/>
<path d="M770 332 c-9 -4 -15 -11 -15 -17 2 -29 48 -145 66 -163 21 -23 49
-29 49 -11 0 5 4 8 9 5 18 -11 -10 78 -37 118 -16 23 -31 49 -35 59 -7 18 -13
20 -37 9z"/>
<path d="M545 301 c-3 -6 -10 -9 -14 -6 -8 5 -41 -97 -41 -127 0 -9 6 -21 14
-27 11 -9 17 -8 28 8 8 12 17 19 20 16 6 -6 8 16 7 85 0 58 -3 68 -14 51z"/>
</g>
</svg>
